<svg width="24" height="16" viewBox="0 0 24 16" fill="none" xmlns="http://www.w3.org/2000/svg">
<path d="M23.5875 16H0.4125C0.182813 16 0 15.8092 0 15.5802V0.419797C0 0.190817 0.1875 0 0.4125 0H23.5828C23.8125 0 23.9953 0.190817 23.9953 0.419797V15.5802C24 15.814 23.8125 16 23.5875 16Z" fill="#F5F5F5"/>
<path d="M24 1.23077H0V0.419798C0 0.190817 0.1875 0 0.4125 0H23.5828C23.8125 0 23.9953 0.190817 23.9953 0.419798L24 1.23077Z" fill="#D80027"/>
<path d="M24 4.92313H0V6.1539H24V4.92313Z" fill="#D80027"/>
<path d="M24 2.46153H0V3.6923H24V2.46153Z" fill="#D80027"/>
<path d="M24 8.61537H0.4125C0.182813 8.61537 0 8.42455 0 8.19557V7.3846H24V8.61537Z" fill="#D80027"/>
<path d="M24 12.3077H0V13.5384H24V12.3077Z" fill="#D80027"/>
<path d="M23.5875 16H0.4125C0.182813 16 0 15.8092 0 15.5802V14.7693H24V15.5802C24 15.814 23.8125 16 23.5875 16Z" fill="#D80027"/>
<path d="M24 9.84613H0V11.0769H24V9.84613Z" fill="#D80027"/>
<path d="M10.7578 0H0.4125C0.1875 0 0 0.190817 0 0.419797V8.19559C0 8.42934 0.1875 8.61539 0.4125 8.61539H10.7578C10.9875 8.61539 11.1703 8.42457 11.1703 8.19559V0.419797C11.1703 0.190817 10.9875 0 10.7578 0Z" fill="#0052B4"/>
<path d="M1.16236 0.968442L1.25611 1.2499H1.54673C1.58423 1.2499 1.5983 1.2976 1.57017 1.32145L1.3358 1.49796L1.42486 1.77941C1.43423 1.81758 1.39673 1.8462 1.36392 1.82235L1.12955 1.65061L0.89517 1.82235C0.862358 1.8462 0.824858 1.81281 0.834233 1.77941L0.923295 1.49796L0.68892 1.32145C0.660795 1.2976 0.674858 1.2499 0.712358 1.2499H1.00298L1.09673 0.968442C1.10142 0.930278 1.1483 0.930278 1.16236 0.968442Z" fill="#F5F5F5"/>
<path d="M1.16236 2.42815L1.25611 2.70961H1.54673C1.58423 2.70961 1.5983 2.75731 1.57017 2.78116L1.3358 2.95767L1.42486 3.23912C1.43423 3.27729 1.39673 3.30591 1.36392 3.28206L1.12955 3.11032L0.89517 3.28206C0.862358 3.30591 0.824858 3.27252 0.834233 3.23912L0.923295 2.95767L0.68892 2.78116C0.660795 2.75731 0.674858 2.70961 0.712358 2.70961H1.00298L1.09673 2.42815C1.10142 2.39476 1.1483 2.39476 1.16236 2.42815Z" fill="#F5F5F5"/>
<path d="M1.16236 3.89268L1.25611 4.17414H1.54673C1.58423 4.17414 1.5983 4.22184 1.57017 4.24569L1.3358 4.4222L1.42486 4.70365C1.43423 4.74182 1.39673 4.77044 1.36392 4.74659L1.12955 4.57485L0.89517 4.74659C0.862358 4.77044 0.824858 4.73705 0.834233 4.70365L0.923295 4.4222L0.68892 4.24569C0.660795 4.22184 0.674858 4.17414 0.712358 4.17414H1.00298L1.09673 3.89268C1.10142 3.85452 1.1483 3.85452 1.16236 3.89268Z" fill="#F5F5F5"/>
<path d="M1.16236 5.35248L1.25611 5.63394H1.54673C1.58423 5.63394 1.5983 5.68164 1.57017 5.7055L1.3358 5.882L1.42486 6.16346C1.43423 6.20162 1.39673 6.23024 1.36392 6.20639L1.12955 6.03466L0.89517 6.20639C0.862358 6.23024 0.824858 6.19685 0.834233 6.16346L0.923295 5.882L0.68892 5.7055C0.660795 5.68164 0.674858 5.63394 0.712358 5.63394H1.00298L1.09673 5.35248C1.10142 5.31909 1.1483 5.31909 1.16236 5.35248Z" fill="#F5F5F5"/>
<path d="M1.16236 6.817L1.25611 7.09846H1.54673C1.58423 7.09846 1.5983 7.14616 1.57017 7.17001L1.3358 7.34652L1.42486 7.62797C1.43423 7.66614 1.39673 7.69476 1.36392 7.67091L1.12955 7.49917L0.89517 7.67091C0.862358 7.69476 0.824858 7.66137 0.834233 7.62797L0.923295 7.34652L0.68892 7.17001C0.660795 7.14616 0.674858 7.09846 0.712358 7.09846H1.00298L1.09673 6.817C1.10142 6.77883 1.1483 6.77883 1.16236 6.817Z" fill="#F5F5F5"/>
<path d="M2.27784 1.68403L2.37159 1.96549H2.66221C2.69971 1.96549 2.71377 2.01319 2.68565 2.03705L2.45127 2.21355L2.54034 2.49501C2.54971 2.53317 2.51221 2.56179 2.4794 2.53794L2.24502 2.3662L2.01065 2.53794C1.97784 2.56179 1.94034 2.5284 1.94971 2.49501L2.03877 2.21355L1.8044 2.03705C1.77627 2.01319 1.79034 1.96549 1.82784 1.96549H2.11846L2.21221 1.68403C2.2169 1.64587 2.26377 1.64587 2.27784 1.68403Z" fill="#F5F5F5"/>
<path d="M2.27784 3.14374L2.37159 3.4252H2.66221C2.69971 3.4252 2.71377 3.4729 2.68565 3.49675L2.45127 3.67326L2.54034 3.95471C2.54971 3.99288 2.51221 4.0215 2.4794 3.99765L2.24502 3.82591L2.01065 3.99765C1.97784 4.0215 1.94034 3.98811 1.94971 3.95471L2.03877 3.67326L1.8044 3.49675C1.77627 3.4729 1.79034 3.4252 1.82784 3.4252H2.11846L2.21221 3.14374C2.2169 3.11035 2.26377 3.11035 2.27784 3.14374Z" fill="#F5F5F5"/>
<path d="M2.27784 4.60827L2.37159 4.88973H2.66221C2.69971 4.88973 2.71377 4.93743 2.68565 4.96128L2.45127 5.13779L2.54034 5.41924C2.54971 5.45741 2.51221 5.48603 2.4794 5.46218L2.24502 5.29044L2.01065 5.46218C1.97784 5.48603 1.94034 5.45264 1.94971 5.41924L2.03877 5.13779L1.8044 4.96128C1.77627 4.93743 1.79034 4.88973 1.82784 4.88973H2.11846L2.21221 4.60827C2.2169 4.57011 2.26377 4.57011 2.27784 4.60827Z" fill="#F5F5F5"/>
<path d="M2.27784 6.07281L2.37159 6.35427H2.66221C2.69971 6.35427 2.71377 6.40197 2.68565 6.42582L2.45127 6.60233L2.54034 6.88378C2.54971 6.92194 2.51221 6.95057 2.4794 6.92671L2.24502 6.75498L2.01065 6.92671C1.97784 6.95057 1.94034 6.91717 1.94971 6.88378L2.03877 6.60233L1.8044 6.42582C1.77627 6.40197 1.79034 6.35427 1.82784 6.35427H2.11846L2.21221 6.07281C2.2169 6.03465 2.26377 6.03465 2.27784 6.07281Z" fill="#F5F5F5"/>
<path d="M3.39356 0.968442L3.48731 1.2499H3.77793C3.81543 1.2499 3.8295 1.2976 3.80137 1.32145L3.567 1.49796L3.65606 1.77941C3.66543 1.81758 3.62793 1.8462 3.59512 1.82235L3.36075 1.65061L3.12637 1.82235C3.09356 1.8462 3.05606 1.81281 3.06543 1.77941L3.1545 1.49796L2.92012 1.32145C2.892 1.2976 2.90606 1.2499 2.94356 1.2499H3.23418L3.32793 0.968442C3.32793 0.930278 3.3795 0.930278 3.39356 0.968442Z" fill="#F5F5F5"/>
<path d="M3.39361 2.42815L3.48736 2.70961H3.77798C3.81548 2.70961 3.82955 2.75731 3.80142 2.78116L3.56236 2.95767L3.65142 3.23912C3.6608 3.27729 3.6233 3.30591 3.59048 3.28206L3.35611 3.11032L3.12173 3.28206C3.08892 3.30591 3.05142 3.27252 3.0608 3.23912L3.14986 2.95767L2.91548 2.78116C2.88736 2.75731 2.90142 2.70961 2.93892 2.70961H3.22955L3.3233 2.42815C3.32798 2.39476 3.37955 2.39476 3.39361 2.42815Z" fill="#F5F5F5"/>
<path d="M3.39356 3.89268L3.48731 4.17414H3.77793C3.81543 4.17414 3.8295 4.22184 3.80137 4.24569L3.567 4.4222L3.65606 4.70365C3.66543 4.74182 3.62793 4.77044 3.59512 4.74659L3.36075 4.57485L3.12637 4.74659C3.09356 4.77044 3.05606 4.73705 3.06543 4.70365L3.1545 4.4222L2.92012 4.24569C2.892 4.22184 2.90606 4.17414 2.94356 4.17414H3.23418L3.32793 3.89268C3.32793 3.85452 3.3795 3.85452 3.39356 3.89268Z" fill="#F5F5F5"/>
<path d="M3.39356 5.35248L3.48731 5.63394H3.77793C3.81543 5.63394 3.8295 5.68164 3.80137 5.7055L3.567 5.882L3.65606 6.16346C3.66543 6.20162 3.62793 6.23024 3.59512 6.20639L3.36075 6.03466L3.12637 6.20639C3.09356 6.23024 3.05606 6.19685 3.06543 6.16346L3.1545 5.882L2.92012 5.7055C2.892 5.68164 2.90606 5.63394 2.94356 5.63394H3.23418L3.32793 5.35248C3.32793 5.31909 3.3795 5.31909 3.39356 5.35248Z" fill="#F5F5F5"/>
<path d="M3.39356 6.817L3.48731 7.09846H3.77793C3.81543 7.09846 3.8295 7.14616 3.80137 7.17001L3.567 7.34652L3.65606 7.62797C3.66543 7.66614 3.62793 7.69476 3.59512 7.67091L3.36075 7.49917L3.12637 7.67091C3.09356 7.69476 3.05606 7.66137 3.06543 7.62797L3.1545 7.34652L2.92012 7.17001C2.892 7.14616 2.90606 7.09846 2.94356 7.09846H3.23418L3.32793 6.817C3.32793 6.77883 3.3795 6.77883 3.39356 6.817Z" fill="#F5F5F5"/>
<path d="M4.50928 1.68403L4.60303 1.96549H4.89366C4.93116 1.96549 4.94522 2.01319 4.91709 2.03705L4.68272 2.21355L4.77178 2.49501C4.78116 2.53317 4.74366 2.56179 4.71084 2.53794L4.47647 2.3662L4.24209 2.53794C4.20928 2.56179 4.17178 2.5284 4.18116 2.49501L4.27022 2.21355L4.03584 2.03705C4.00772 2.01319 4.02178 1.96549 4.05928 1.96549H4.34991L4.44366 1.68403C4.44366 1.64587 4.49522 1.64587 4.50928 1.68403Z" fill="#F5F5F5"/>
<path d="M4.50928 3.14374L4.60303 3.4252H4.89366C4.93116 3.4252 4.94522 3.4729 4.91709 3.49675L4.68272 3.67326L4.77178 3.95471C4.78116 3.99288 4.74366 4.0215 4.71084 3.99765L4.47647 3.82591L4.24209 3.99765C4.20928 4.0215 4.17178 3.98811 4.18116 3.95471L4.27022 3.67326L4.03584 3.49675C4.00772 3.4729 4.02178 3.4252 4.05928 3.4252H4.34991L4.44366 3.14374C4.44366 3.11035 4.49522 3.11035 4.50928 3.14374Z" fill="#F5F5F5"/>
<path d="M4.50928 4.60827L4.60303 4.88973H4.89366C4.93116 4.88973 4.94522 4.93743 4.91709 4.96128L4.68272 5.13779L4.77178 5.41924C4.78116 5.45741 4.74366 5.48603 4.71084 5.46218L4.47647 5.29044L4.24209 5.46218C4.20928 5.48603 4.17178 5.45264 4.18116 5.41924L4.27022 5.13779L4.03584 4.96128C4.00772 4.93743 4.02178 4.88973 4.05928 4.88973H4.34991L4.44366 4.60827C4.44366 4.57011 4.49522 4.57011 4.50928 4.60827Z" fill="#F5F5F5"/>
<path d="M4.50928 6.07281L4.60303 6.35427H4.89366C4.93116 6.35427 4.94522 6.40197 4.91709 6.42582L4.68272 6.60233L4.77178 6.88378C4.78116 6.92194 4.74366 6.95057 4.71084 6.92671L4.47647 6.75498L4.24209 6.92671C4.20928 6.95057 4.17178 6.91717 4.18116 6.88378L4.27022 6.60233L4.03584 6.42582C4.00772 6.40197 4.02178 6.35427 4.05928 6.35427H4.34991L4.44366 6.07281C4.44366 6.03465 4.49522 6.03465 4.50928 6.07281Z" fill="#F5F5F5"/>
<path d="M5.62501 0.968442L5.71876 1.2499H6.00938C6.04688 1.2499 6.06094 1.2976 6.03282 1.32145L5.79844 1.49796L5.88751 1.77941C5.89688 1.81758 5.85938 1.8462 5.82657 1.82235L5.59219 1.65061L5.35782 1.82235C5.325 1.8462 5.2875 1.81281 5.29688 1.77941L5.38594 1.49796L5.15157 1.32145C5.12344 1.2976 5.1375 1.2499 5.175 1.2499H5.46563L5.55938 0.968442C5.55938 0.930278 5.61094 0.930278 5.62501 0.968442Z" fill="#F5F5F5"/>
<path d="M5.62501 2.42815L5.71876 2.70961H6.00938C6.04688 2.70961 6.06094 2.75731 6.03282 2.78116L5.79844 2.95767L5.88751 3.23912C5.89688 3.27729 5.85938 3.30591 5.82657 3.28206L5.59219 3.11032L5.35782 3.28206C5.325 3.30591 5.2875 3.27252 5.29688 3.23912L5.38594 2.95767L5.15157 2.78116C5.12344 2.75731 5.1375 2.70961 5.175 2.70961H5.46563L5.55938 2.42815C5.55938 2.39476 5.61094 2.39476 5.62501 2.42815Z" fill="#F5F5F5"/>
<path d="M5.62501 3.89268L5.71876 4.17414H6.00938C6.04688 4.17414 6.06094 4.22184 6.03282 4.24569L5.79844 4.4222L5.88751 4.70365C5.89688 4.74182 5.85938 4.77044 5.82657 4.74659L5.59219 4.57485L5.35782 4.74659C5.325 4.77044 5.2875 4.73705 5.29688 4.70365L5.38594 4.4222L5.15157 4.24569C5.12344 4.22184 5.1375 4.17414 5.175 4.17414H5.46563L5.55938 3.89268C5.55938 3.85452 5.61094 3.85452 5.62501 3.89268Z" fill="#F5F5F5"/>
<path d="M5.62501 5.35248L5.71876 5.63394H6.00938C6.04688 5.63394 6.06094 5.68164 6.03282 5.7055L5.79844 5.882L5.88751 6.16346C5.89688 6.20162 5.85938 6.23024 5.82657 6.20639L5.59219 6.03466L5.35782 6.20639C5.325 6.23024 5.2875 6.19685 5.29688 6.16346L5.38594 5.882L5.15157 5.7055C5.12344 5.68164 5.1375 5.63394 5.175 5.63394H5.46563L5.55938 5.35248C5.55938 5.31909 5.61094 5.31909 5.62501 5.35248Z" fill="#F5F5F5"/>
<path d="M5.62501 6.817L5.71876 7.09846H6.00938C6.04688 7.09846 6.06094 7.14616 6.03282 7.17001L5.79844 7.34652L5.88751 7.62797C5.89688 7.66614 5.85938 7.69476 5.82657 7.67091L5.59219 7.49917L5.35782 7.67091C5.325 7.69476 5.2875 7.66137 5.29688 7.62797L5.38594 7.34652L5.15157 7.17001C5.12344 7.14616 5.1375 7.09846 5.175 7.09846H5.46563L5.55938 6.817C5.55938 6.77883 5.61094 6.77883 5.62501 6.817Z" fill="#F5F5F5"/>
<path d="M6.74048 1.68403L6.83423 1.96549H7.12486C7.16236 1.96549 7.17642 2.01319 7.1483 2.03705L6.91392 2.21355L7.00298 2.49501C7.01236 2.53317 6.97486 2.56179 6.94205 2.53794L6.70767 2.3662L6.4733 2.53794C6.44048 2.56179 6.40298 2.5284 6.41236 2.49501L6.50142 2.21355L6.26705 2.03705C6.23892 2.01319 6.25298 1.96549 6.29048 1.96549H6.58111L6.67486 1.68403C6.67486 1.64587 6.72642 1.64587 6.74048 1.68403Z" fill="#F5F5F5"/>
<path d="M6.74048 3.14374L6.83423 3.4252H7.12486C7.16236 3.4252 7.17642 3.4729 7.1483 3.49675L6.91392 3.67326L7.00298 3.95471C7.01236 3.99288 6.97486 4.0215 6.94205 3.99765L6.70767 3.82591L6.4733 3.99765C6.44048 4.0215 6.40298 3.98811 6.41236 3.95471L6.50142 3.67326L6.26705 3.49675C6.23892 3.4729 6.25298 3.4252 6.29048 3.4252H6.58111L6.67486 3.14374C6.67486 3.11035 6.72642 3.11035 6.74048 3.14374Z" fill="#F5F5F5"/>
<path d="M6.74048 4.60827L6.83423 4.88973H7.12486C7.16236 4.88973 7.17642 4.93743 7.1483 4.96128L6.91392 5.13779L7.00298 5.41924C7.01236 5.45741 6.97486 5.48603 6.94205 5.46218L6.70767 5.29044L6.4733 5.46218C6.44048 5.48603 6.40298 5.45264 6.41236 5.41924L6.50142 5.13779L6.26705 4.96128C6.23892 4.93743 6.25298 4.88973 6.29048 4.88973H6.58111L6.67486 4.60827C6.67486 4.57011 6.72642 4.57011 6.74048 4.60827Z" fill="#F5F5F5"/>
<path d="M6.74048 6.07281L6.83423 6.35427H7.12486C7.16236 6.35427 7.17642 6.40197 7.1483 6.42582L6.91392 6.60233L7.00298 6.88378C7.01236 6.92194 6.97486 6.95057 6.94205 6.92671L6.70767 6.75498L6.4733 6.92671C6.44048 6.95057 6.40298 6.91717 6.41236 6.88378L6.50142 6.60233L6.26705 6.42582C6.23892 6.40197 6.25298 6.35427 6.29048 6.35427H6.58111L6.67486 6.07281C6.67486 6.03465 6.72642 6.03465 6.74048 6.07281Z" fill="#F5F5F5"/>
<path d="M7.85157 0.968442L7.94532 1.2499H8.23594C8.27344 1.2499 8.28751 1.2976 8.25938 1.32145L8.02501 1.49796L8.11407 1.77941C8.12344 1.81758 8.08594 1.8462 8.05313 1.82235L7.81876 1.65061L7.58438 1.82235C7.55157 1.8462 7.51407 1.81281 7.52344 1.77941L7.6125 1.49796L7.37813 1.32145C7.35 1.2976 7.36407 1.2499 7.40157 1.2499H7.69219L7.78594 0.968442C7.79063 0.930278 7.84219 0.930278 7.85157 0.968442Z" fill="#F5F5F5"/>
<path d="M7.85157 2.42815L7.94532 2.70961H8.23594C8.27344 2.70961 8.28751 2.75731 8.25938 2.78116L8.02501 2.95767L8.11407 3.23912C8.12344 3.27729 8.08594 3.30591 8.05313 3.28206L7.81876 3.11032L7.58438 3.28206C7.55157 3.30591 7.51407 3.27252 7.52344 3.23912L7.6125 2.95767L7.37813 2.78116C7.35 2.75731 7.36407 2.70961 7.40157 2.70961H7.69219L7.78594 2.42815C7.79063 2.39476 7.84219 2.39476 7.85157 2.42815Z" fill="#F5F5F5"/>
<path d="M7.85157 3.89268L7.94532 4.17414H8.23594C8.27344 4.17414 8.28751 4.22184 8.25938 4.24569L8.02501 4.4222L8.11407 4.70365C8.12344 4.74182 8.08594 4.77044 8.05313 4.74659L7.81876 4.57485L7.58438 4.74659C7.55157 4.77044 7.51407 4.73705 7.52344 4.70365L7.6125 4.4222L7.37813 4.24569C7.35 4.22184 7.36407 4.17414 7.40157 4.17414H7.69219L7.78594 3.89268C7.79063 3.85452 7.84219 3.85452 7.85157 3.89268Z" fill="#F5F5F5"/>
<path d="M7.85157 5.35248L7.94532 5.63394H8.23594C8.27344 5.63394 8.28751 5.68164 8.25938 5.7055L8.02501 5.882L8.11407 6.16346C8.12344 6.20162 8.08594 6.23024 8.05313 6.20639L7.81876 6.03466L7.58438 6.20639C7.55157 6.23024 7.51407 6.19685 7.52344 6.16346L7.6125 5.882L7.37813 5.7055C7.35 5.68164 7.36407 5.63394 7.40157 5.63394H7.69219L7.78594 5.35248C7.79063 5.31909 7.84219 5.31909 7.85157 5.35248Z" fill="#F5F5F5"/>
<path d="M7.85157 6.817L7.94532 7.09846H8.23594C8.27344 7.09846 8.28751 7.14616 8.25938 7.17001L8.02501 7.34652L8.11407 7.62797C8.12344 7.66614 8.08594 7.69476 8.05313 7.67091L7.81876 7.49917L7.58438 7.67091C7.55157 7.69476 7.51407 7.66137 7.52344 7.62797L7.6125 7.34652L7.37813 7.17001C7.35 7.14616 7.36407 7.09846 7.40157 7.09846H7.69219L7.78594 6.817C7.79063 6.77883 7.84219 6.77883 7.85157 6.817Z" fill="#F5F5F5"/>
<path d="M8.96705 1.68403L9.0608 1.96549H9.35142C9.38892 1.96549 9.40298 2.01319 9.37486 2.03705L9.14048 2.21355L9.22955 2.49501C9.23892 2.53317 9.20142 2.56179 9.16861 2.53794L8.93423 2.3662L8.69986 2.53794C8.66705 2.56179 8.62955 2.5284 8.63892 2.49501L8.72798 2.21355L8.49361 2.03705C8.46548 2.01319 8.47955 1.96549 8.51705 1.96549H8.80767L8.90142 1.68403C8.90611 1.64587 8.95767 1.64587 8.96705 1.68403Z" fill="#F5F5F5"/>
<path d="M8.96705 3.14374L9.0608 3.4252H9.35142C9.38892 3.4252 9.40298 3.4729 9.37486 3.49675L9.14048 3.67326L9.22955 3.95471C9.23892 3.99288 9.20142 4.0215 9.16861 3.99765L8.93423 3.82591L8.69986 3.99765C8.66705 4.0215 8.62955 3.98811 8.63892 3.95471L8.72798 3.67326L8.49361 3.49675C8.46548 3.4729 8.47955 3.4252 8.51705 3.4252H8.80767L8.90142 3.14374C8.90611 3.11035 8.95767 3.11035 8.96705 3.14374Z" fill="#F5F5F5"/>
<path d="M8.96705 4.60827L9.0608 4.88973H9.35142C9.38892 4.88973 9.40298 4.93743 9.37486 4.96128L9.14048 5.13779L9.22955 5.41924C9.23892 5.45741 9.20142 5.48603 9.16861 5.46218L8.93423 5.29044L8.69986 5.46218C8.66705 5.48603 8.62955 5.45264 8.63892 5.41924L8.72798 5.13779L8.49361 4.96128C8.46548 4.93743 8.47955 4.88973 8.51705 4.88973H8.80767L8.90142 4.60827C8.90611 4.57011 8.95767 4.57011 8.96705 4.60827Z" fill="#F5F5F5"/>
<path d="M8.96705 6.07281L9.0608 6.35427H9.35142C9.38892 6.35427 9.40298 6.40197 9.37486 6.42582L9.14048 6.60233L9.22955 6.88378C9.23892 6.92194 9.20142 6.95057 9.16861 6.92671L8.93423 6.75498L8.69986 6.92671C8.66705 6.95057 8.62955 6.91717 8.63892 6.88378L8.72798 6.60233L8.49361 6.42582C8.46548 6.40197 8.47955 6.35427 8.51705 6.35427H8.80767L8.90142 6.07281C8.90611 6.03465 8.95767 6.03465 8.96705 6.07281Z" fill="#F5F5F5"/>
<path d="M10.0825 0.968442L10.1763 1.2499H10.4669C10.5044 1.2499 10.5185 1.2976 10.4903 1.32145L10.256 1.49796L10.345 1.77941C10.3544 1.81758 10.3169 1.8462 10.2841 1.82235L10.0497 1.65061L9.81534 1.82235C9.78252 1.8462 9.74502 1.81281 9.7544 1.77941L9.84346 1.49796L9.60909 1.32145C9.58096 1.2976 9.59502 1.2499 9.63252 1.2499H9.92315L10.0169 0.968442C10.0216 0.930278 10.0731 0.930278 10.0825 0.968442Z" fill="#F5F5F5"/>
<path d="M10.0825 2.42815L10.1763 2.70961H10.4669C10.5044 2.70961 10.5185 2.75731 10.4903 2.78116L10.256 2.95767L10.345 3.23912C10.3544 3.27729 10.3169 3.30591 10.2841 3.28206L10.0497 3.11032L9.81534 3.28206C9.78252 3.30591 9.74502 3.27252 9.7544 3.23912L9.84346 2.95767L9.60909 2.78116C9.58096 2.75731 9.59502 2.70961 9.63252 2.70961H9.92315L10.0169 2.42815C10.0216 2.39476 10.0731 2.39476 10.0825 2.42815Z" fill="#F5F5F5"/>
<path d="M10.0825 3.89268L10.1763 4.17414H10.4669C10.5044 4.17414 10.5185 4.22184 10.4903 4.24569L10.256 4.4222L10.345 4.70365C10.3544 4.74182 10.3169 4.77044 10.2841 4.74659L10.0497 4.57485L9.81534 4.74659C9.78252 4.77044 9.74502 4.73705 9.7544 4.70365L9.84346 4.4222L9.60909 4.24569C9.58096 4.22184 9.59502 4.17414 9.63252 4.17414H9.92315L10.0169 3.89268C10.0216 3.85452 10.0731 3.85452 10.0825 3.89268Z" fill="#F5F5F5"/>
<path d="M10.0825 5.35248L10.1763 5.63394H10.4669C10.5044 5.63394 10.5185 5.68164 10.4903 5.7055L10.256 5.882L10.345 6.16346C10.3544 6.20162 10.3169 6.23024 10.2841 6.20639L10.0497 6.03466L9.81534 6.20639C9.78252 6.23024 9.74502 6.19685 9.7544 6.16346L9.84346 5.882L9.60909 5.7055C9.58096 5.68164 9.59502 5.63394 9.63252 5.63394H9.92315L10.0169 5.35248C10.0216 5.31909 10.0731 5.31909 10.0825 5.35248Z" fill="#F5F5F5"/>
<path d="M10.0825 6.817L10.1763 7.09846H10.4669C10.5044 7.09846 10.5185 7.14616 10.4903 7.17001L10.256 7.34652L10.345 7.62797C10.3544 7.66614 10.3169 7.69476 10.2841 7.67091L10.0497 7.49917L9.81534 7.67091C9.78252 7.69476 9.74502 7.66137 9.7544 7.62797L9.84346 7.34652L9.60909 7.17001C9.58096 7.14616 9.59502 7.09846 9.63252 7.09846H9.92315L10.0169 6.817C10.0216 6.77883 10.0731 6.77883 10.0825 6.817Z" fill="#F5F5F5"/>
</svg>
